<?xml version="1.0" standalone="no"?>
<!DOCTYPE svg PUBLIC "-//W3C//DTD SVG 20010904//EN"
 "http://www.w3.org/TR/2001/REC-SVG-20010904/DTD/svg10.dtd">
<svg version="1.0" xmlns="http://www.w3.org/2000/svg"
 width="700.000000pt" height="700.000000pt" viewBox="0 0 700.000000 700.000000"
 preserveAspectRatio="xMidYMid meet">
<metadata>
Created by potrace 1.14, written by Peter Selinger 2001-2017
</metadata>
<g transform="translate(0.000000,700.000000) scale(0.100000,-0.100000)"
fill="#000000" stroke="none">
<path d="M1985 5958 c-198 -74 -249 -323 -95 -461 23 -22 57 -45 76 -53 46
-19 131 -24 180 -9 40 12 41 12 54 -19 7 -17 30 -67 50 -111 21 -44 54 -118
75 -165 21 -47 58 -127 82 -178 23 -52 43 -99 43 -105 0 -9 -54 -12 -197 -12
-209 1 -274 -5 -363 -32 -206 -64 -386 -244 -458 -460 l-26 -78 -3 -434 c-2
-239 -5 -436 -7 -438 -2 -2 -59 67 -127 153 -185 233 -159 212 -259 210 l-85
-1 0 -505 0 -505 85 -1 c82 -1 86 0 114 30 16 17 41 47 55 66 64 86 214 270
218 267 2 -2 4 -109 6 -238 l2 -233 2085 -1 c1147 0 2092 1 2100 3 13 3 15 34
14 230 0 125 1 231 4 235 2 4 58 -61 125 -145 67 -84 132 -164 144 -178 13
-14 23 -27 23 -30 0 -3 41 -6 90 -6 l90 0 0 506 0 506 -87 -1 -88 0 -145 -182
c-80 -100 -147 -182 -150 -182 -3 -1 -5 178 -6 397 0 218 -3 420 -7 448 -19
146 -84 271 -202 390 -92 93 -180 147 -300 182 -73 22 -101 24 -308 26 -125 2
-229 5 -232 7 -2 3 50 124 116 270 67 145 127 279 135 297 13 28 17 31 35 22
11 -6 46 -13 77 -14 100 -6 199 47 248 130 31 53 36 74 37 149 0 232 -290 354
-456 190 -62 -61 -81 -106 -84 -194 -2 -75 15 -128 53 -172 15 -17 8 -24 -281
-289 -38 -35 -72 -67 -75 -70 -3 -3 -52 -48 -110 -100 -58 -52 -117 -106 -131
-120 -14 -14 -46 -43 -69 -65 l-44 -39 -490 -1 c-270 -1 -498 1 -508 5 -18 6
-52 34 -148 124 -36 34 -112 104 -169 156 -57 52 -116 106 -131 120 -85 79
-210 192 -243 222 l-38 33 33 64 c28 55 33 74 32 130 -1 36 -8 82 -17 102 -21
50 -82 116 -131 141 -48 25 -165 34 -211 16z m775 -2061 c75 -27 160 -115 190
-194 38 -100 29 -217 -24 -303 -31 -53 -56 -78 -111 -114 -173 -114 -410 -46
-503 143 -22 46 -27 71 -29 142 -2 76 1 92 27 147 82 173 267 247 450 179z
m1750 0 c76 -28 159 -112 190 -192 66 -173 -10 -365 -175 -442 -52 -24 -72
-28 -150 -28 -78 0 -97 4 -145 27 -72 36 -133 96 -167 166 -24 50 -28 69 -28
147 0 76 5 99 26 145 80 171 268 245 449 177z"/>
<path d="M1401 2250 c1 -181 14 -276 52 -365 93 -223 315 -397 547 -429 85
-12 2984 -7 3037 5 26 6 57 12 67 15 11 2 53 19 93 38 194 92 329 255 388 466
12 42 19 136 20 273 l1 167 -601 0 -601 0 -17 -30 c-30 -50 -174 -196 -247
-250 -179 -133 -376 -199 -610 -205 -358 -8 -676 145 -893 432 l-39 53 -599 0
-598 0 0 -170z"/>
<path d="M2455 1221 c-3 -2 -5 -77 -5 -166 l0 -161 1039 1 c572 0 1042 2 1045
5 4 5 10 215 7 296 l-1 30 -1040 0 c-572 0 -1043 -2 -1045 -5z"/>
</g>
</svg>
